<?xml version="1.0" encoding="utf-8"?>
<!-- Generator: Adobe Illustrator 23.0.3, SVG Export Plug-In . SVG Version: 6.00 Build 0)  -->
<svg version="1.1" baseProfile="tiny" id="Layer_1" xmlns="http://www.w3.org/2000/svg" xmlns:xlink="http://www.w3.org/1999/xlink"
	 x="0px" y="0px" viewBox="0 0 300 300" xml:space="preserve">
<path fill-rule="evenodd" fill="#00B797" d="M199.29,140.5c2.87-2.85,2.87-7.53,0-10.38c-2.85-2.87-7.53-2.87-10.4,0l-60.96,60.95
	l-16.85-16.84c-2.85-2.87-7.53-2.87-10.38,0c-2.87,2.85-2.87,7.53,0,10.38l22.06,22.06c1.43,1.43,3.31,2.15,5.18,2.15
	c1.88,0,3.76-0.69,5.19-2.15L199.29,140.5z M150,32.37c-1.91,0-3.81,0.79-5.18,2.18c-1.4,1.35-2.18,3.26-2.18,5.18
	c0,1.93,0.81,3.81,2.18,5.19c1.35,1.4,3.25,2.16,5.18,2.16c1.93,0,3.82-0.78,5.19-2.16c1.4-1.37,2.16-3.26,2.16-5.19
	c0-1.91-0.78-3.81-2.16-5.18C153.84,33.14,151.93,32.37,150,32.37z M108.81,50.16c5.71-2.98,11.76-3.09,11.78-3.09
	c4.07,0,7.35-3.28,7.35-7.35c0-12.16,9.9-22.06,22.06-22.06c12.18,0,22.06,9.9,22.06,22.06c0,4.07,3.25,7.35,7.32,7.35
	c0.06,0,6.12,0.1,11.82,3.09c4.87,2.54,7.97,6.38,9.4,11.62H99.42C100.84,56.52,103.95,52.7,108.81,50.16z M91.18,76.48H208.8
	c4.07,0,7.35-3.28,7.35-7.35c0-0.12,0-0.25-0.01-0.4c-0.1-14.57-6.75-25.91-18.76-31.91c-4.03-2.01-8.03-3.13-11.23-3.73
	c-3.12-17.12-18.16-30.13-36.16-30.13c-17.98,0-33.03,13.01-36.16,30.13c-3.18,0.6-7.19,1.72-11.22,3.73
	c-12.1,6.04-18.78,17.54-18.78,32.31C83.83,73.2,87.12,76.48,91.18,76.48z M252.93,47.07h-14.7c-4.06,0-7.35,3.29-7.35,7.35
	c0,4.07,3.29,7.35,7.35,7.35h14.7c4.07,0,7.35,3.29,7.35,7.35v205.86c0,4.07-3.28,7.35-7.35,7.35H47.07c-4.06,0-7.35-3.28-7.35-7.35
	V69.13c0-4.06,3.29-7.35,7.35-7.35h14.7c4.07,0,7.35-3.28,7.35-7.35c0-4.06-3.28-7.35-7.35-7.35h-14.7
	c-12.16,0-22.06,9.9-22.06,22.06v205.86c0,12.18,9.9,22.06,22.06,22.06h205.86c12.18,0,22.06-9.88,22.06-22.06V69.13
	C274.99,56.97,265.11,47.07,252.93,47.07z"/>
</svg>
