<?xml version="1.0" encoding="utf-8"?>
<!-- Generator: Adobe Illustrator 23.0.3, SVG Export Plug-In . SVG Version: 6.00 Build 0)  -->
<svg version="1.1" baseProfile="tiny" id="Layer_1" xmlns="http://www.w3.org/2000/svg" xmlns:xlink="http://www.w3.org/1999/xlink"
	 x="0px" y="0px" viewBox="0 0 300 300" xml:space="preserve">
<path fill-rule="evenodd" fill="#333333" d="M213.03,76.1H97.57c-1.99,0.12-3.94-0.59-5.39-1.95c-1.45-1.37-2.27-3.27-2.26-5.26
	c-0.94-13.67,6.55-26.54,18.91-32.47c3.47-1.7,7.16-2.91,10.97-3.61c2.94-17.36,17.97-30.07,35.58-30.07
	c17.61,0,32.64,12.71,35.58,30.07c3.79,0.93,7.43,2.39,10.82,4.33c11.96,5.93,19.23,18.42,18.47,31.75
	C220.25,72.87,217.02,76.1,213.03,76.1z M126.43,47.24c-4.02,0.19-7.95,1.23-11.55,3.03c-4.6,2.26-7.98,6.43-9.24,11.4h99.73
	c-1.45-5.15-5.17-9.35-10.1-11.4c-3.6-1.8-7.53-2.84-11.55-3.03c-3.99,0-7.22-3.23-7.22-7.22c0-11.96-9.69-21.65-21.65-21.65
	c-11.96,0-21.65,9.69-21.65,21.65C133.22,43.84,130.25,47.01,126.43,47.24z M150.25,34.97c1.33-1.36,3.15-2.14,5.05-2.16
	c1.91,0.01,3.73,0.79,5.05,2.16c2.02,2.06,2.62,5.13,1.52,7.8c-1.1,2.67-3.68,4.43-6.57,4.47c-2.06,0.11-4.06-0.68-5.48-2.16
	c-1.35-1.34-2.12-3.15-2.16-5.05C147.77,38.05,148.71,36.22,150.25,34.97z M32.19,292.6h245.36V51.28h-43.3v14.43h29.73v212.45
	H46.62V65.71h26.12V51.28H32.19V292.6z M176.52,234.87h-86.6v-14.43h86.6V234.87z M89.92,191.57h86.6v-14.43h-86.6V191.57z
	 M205.38,148.27H89.92v-14.43h115.46V148.27z"/>
</svg>
